<?xml version="1.0" encoding="UTF-8"?>
<svg width="134px" height="169px" viewBox="0 0 134 169" version="1.1" xmlns="http://www.w3.org/2000/svg" xmlns:xlink="http://www.w3.org/1999/xlink">
    <title>icons8-dripper-2</title>
    <g id="Page-1" stroke="none" stroke-width="1" fill="none" fill-rule="evenodd">
        <g id="iPhone-13-Copy-6" transform="translate(-143.000000, -219.000000)" fill-rule="nonzero">
            <g id="icons8-dripper-2" transform="translate(143.000000, 219.000000)">
                <path d="M95.1663945,144.897236 C92.2100417,145.459423 89.3147894,143.664065 88.48999,140.75717 C87.6651905,137.850274 89.1830533,134.791207 91.9901567,133.70301 L109.66307,126.839205 C116.082609,124.34986 120.761681,118.699177 122.029626,111.904729 C123.297572,105.110281 120.973631,98.1406912 115.887565,93.4844457 C110.711274,88.7742295 103.637766,86.7714373 96.7748739,88.0728806 L81.9698826,90.9072316 C79.9177309,91.3239252 77.8009833,90.6006581 76.4273063,89.0134004 C75.0536293,87.4261427 74.6349435,85.2197644 75.3310027,83.2361316 C76.0270619,81.2524989 77.7304833,79.7976315 79.7913093,79.4266489 L94.5963005,76.5893759 C105.059945,74.6118861 115.841598,77.6711397 123.729266,84.8557461 C131.791555,92.2423734 135.472591,103.295574 133.458117,114.068974 C131.443643,124.842374 124.020831,133.800182 113.839881,137.744152 L96.1669676,144.596269 C95.843101,144.726528 95.5082273,144.827256 95.1663945,144.897236 Z" id="Path" fill="#B8BEBF"></path>
                <path d="M112.340458,84.6686282 C107.761767,83.3678265 103.932126,80.2317387 101.767638,76.0105603 C99.4279152,75.9522642 97.0884208,76.1354459 94.7866401,76.5571702 L79.8378474,79.3954498 C77.7570046,79.7665639 76.0370378,81.2219474 75.3342178,83.2062838 C74.6313977,85.1906203 75.0541502,87.3977812 76.4411698,88.985602 C77.8281893,90.5734228 79.965497,91.2969464 82.0375814,90.880105 L96.986374,88.0447486 C103.919685,86.7440311 111.064772,88.7520576 116.290581,93.4699255 C121.420727,98.1270522 123.764718,105.094431 122.486578,111.887176 C121.208437,118.67992 116.490137,124.330941 110.014438,126.824825 L92.1698672,133.679373 C90.1922662,134.416827 88.7646503,136.154145 88.4307796,138.229604 C88.0969089,140.305064 88.9081819,142.399154 90.5555952,143.714264 C92.2030086,145.029374 94.4329479,145.363045 96.3960583,144.588187 L114.240629,137.73364 C117.413907,136.498981 120.366229,134.762787 122.983764,132.591999 C122.401366,127.533029 123.450462,122.420789 125.979396,117.994298 C129.476187,111.895105 129.963812,104.535129 127.301989,98.0317432 C124.640165,91.5283579 119.124012,86.6026008 112.340458,84.6715513 L112.340458,84.6686282 Z" id="Path" fill="#93999A"></path>
                <path d="M100.720259,145.226248 L88.7330925,73.7474998 C87.7891985,68.1219804 82.8917701,64 77.1538124,64 L22.84916,64 C18.8512971,64 14.9725626,65.3529175 11.850898,67.8354166 L2,75.6666664 L2,75.6666664 C5.62228653,75.6667263 9.05653936,77.2695465 11.3701106,80.0398454 C13.6836819,82.8101444 14.6364098,86.4603494 13.96956,89.9991661 L3.62567694,144.832498 C2.50353106,150.800284 4.11167557,156.954887 8.01361411,161.625773 C11.9155526,166.296658 17.7064859,169 23.8145891,169 L80.4491828,169 C86.4890601,169.002808 92.2240834,166.363358 96.1291182,161.783566 C100.034153,157.203774 101.713388,151.147843 100.720259,145.226248 Z" id="Path" fill="#E9F1F2"></path>
                <path d="M73.137047,145.704583 C43.4555152,144.064977 20.6042254,119.036318 21.841005,89.5208333 L21.841005,89.5208333 C22.2343699,80.1473855 29.9959313,72.7496707 39.4366891,72.75 L88.4903453,72.75 C87.1675946,67.6096208 82.5119846,64.0102163 77.1727543,64 L22.8536006,64 C18.8548863,64 14.9753256,65.3529175 11.8529961,67.8354167 L2,75.6666667 C5.62305804,75.6667265 9.05804232,77.2695467 11.3721063,80.0398458 C13.6861704,82.8101448 14.6391013,86.4603499 13.9721094,89.9991667 L3.62602319,144.8325 C2.50354402,150.800787 4.11239913,156.955896 8.01583252,161.626897 C11.9192659,166.297898 17.7122527,169 23.8221704,169 L80.4688266,169 C86.1498076,168.996073 91.5755867,166.654809 95.4569729,162.532505 C99.3383591,158.4102 101.328868,152.874845 100.955545,147.241667 L73.137047,145.704583 Z" id="Path" fill="#D0D8DA"></path>
                <path d="M76,64 L29,64 L34.0319375,71.4501 C38.3115686,77.7866138 39.6843452,85.611692 37.8125,93 L67.1875,93 C65.3156548,85.611692 66.6884314,77.7866138 70.9680625,71.4501 L76,64 Z" id="Path" fill="#D0D8DA"></path>
                <path d="M66.47075,84.3 L58.375,84.3 C51.8856542,84.3 46.625,79.1065031 46.625,72.7 L70.219,72.7 C70.4686875,72.2824 70.694875,71.8561 70.9680625,71.4501 L76,64 L29,64 L34.0319375,71.4501 C38.3115686,77.7866138 39.6843452,85.611692 37.8125,93 L67.1875,93 C66.4721774,90.1575762 66.2300978,87.2191838 66.47075,84.3 L66.47075,84.3 Z" id="Path" fill="#B8BEBF"></path>
                <polygon id="Path" fill="#93999A" points="56 105 50 105 44 94 62 94"></polygon>
                <path d="M56,99.5 L59,99.5 L62,94 L44,94 L50,105 C50,101.962434 52.6862915,99.5 56,99.5 Z" id="Path" fill="#656B76"></path>
                <path d="M46.2630613,76 C45.2160241,76.006191 44.2566296,75.3630096 43.7886126,74.3410761 L38.2898378,62.3419514 C37.8507669,61.3827632 37.9140558,60.2408623 38.4558641,59.3463917 C38.9976724,58.451921 39.9356866,57.940772 40.9165658,58.0054895 C41.897445,58.070207 42.7721704,58.7009589 43.2112413,59.660147 L48.7100161,71.6592717 C49.1349216,72.5870044 49.0904752,73.6883945 48.5924818,74.5717911 C48.0944884,75.4551877 47.2136014,75.9952581 46.2630613,76 L46.2630613,76 Z" id="Path" fill="#B8BEBF"></path>
                <path d="M58.7509194,78 C57.8381105,78.0007271 56.9844955,77.5304813 56.4727065,76.7449602 C55.9609175,75.959439 55.8577216,74.9611201 56.1972869,74.0805471 L61.6948811,59.7968296 C62.2596213,58.3311131 63.8607339,57.6187059 65.2710662,58.2056236 C66.6813985,58.7925413 67.3668863,60.4565302 66.8021462,61.9222468 L61.3045519,76.2059642 C60.8863844,77.2903735 59.8750262,78.0008954 58.7509194,78 Z" id="Path" fill="#B8BEBF"></path>
                <path d="M46.2271453,72.9658938 C46.2204908,73.9801093 46.3417913,74.9904804 46.5876164,75.9684331 C46.4689155,75.9935901 46.3479674,76.0037662 46.2271453,75.9987618 C45.1794759,76.0089619 44.2195723,75.3601382 43.7593046,74.3306844 L38.9899945,63.8672898 L38.2135952,62.1992124 C37.6552799,60.7327383 38.2261121,59.0435246 39.5222102,58.3267431 C40.8183082,57.6099617 42.4004745,58.1085021 43.1492766,59.4696312 L45.1734605,63.8672898 L48.694986,71.6011032 C48.8870667,72.0260096 48.991206,72.4919827 49,72.9658938 L46.2271453,72.9658938 Z" id="Path" fill="#93999A"></path>
                <path d="M66.7873417,62.1125398 L66.0402959,64.002099 L62.4544759,73 L56,73 L59.58582,64.002099 L61.2293208,59.8930576 C61.8399422,58.3525425 63.579154,57.6005563 65.1139591,58.2134494 C66.6487642,58.8263425 67.3979631,60.5720248 66.7873417,62.1125398 L66.7873417,62.1125398 Z" id="Path" fill="#93999A"></path>
                <path d="M81.6176471,53 L23.3823529,53 L3,4.56657441 L8.51197059,1.78111508 C12.3742717,-0.170888843 16.9198459,-0.170888843 20.7821471,1.78111508 L20.7821471,1.78111508 C24.2883008,3.55328337 28.3765117,3.72473454 32.0157353,2.25222871 L35.1313235,0.991999747 C38.7708045,-0.478984808 42.8583768,-0.307560416 46.3649118,1.46311338 L46.3649118,1.46311338 C50.2264546,3.41836416 54.7735454,3.41836416 58.6350882,1.46311338 L58.6350882,1.46311338 C62.1416232,-0.307560416 66.2291955,-0.478984808 69.8686765,0.991999747 L72.9842647,2.25222871 C76.6234883,3.72473454 80.7116992,3.55328337 84.2178529,1.78111508 L84.2178529,1.78111508 C88.0801541,-0.170888843 92.6257283,-0.170888843 96.4880294,1.78111508 L102,4.56657441 L81.6176471,53 Z" id="Path" fill="#E9F1F2"></path>
                <path d="M87,37.614261 L80.9113707,52 L23.1992442,52 L3,4.19284723 L8.45379595,1.43194783 C11.8287578,-0.249204087 15.7414566,-0.459371336 19.2748196,0.850705853 L27.2390931,30.9299783 C27.5402424,32.0930831 28.4907185,32.9701659 29.6674494,33.1708234 C30.8441803,33.3714808 32.0283591,32.8584016 32.692889,31.8599654 C33.1961058,31.0953594 34.0141541,30.5993119 34.9205621,30.5091509 C35.82697,30.41899 36.7255632,30.744282 37.3675713,31.3949718 L39.070079,33.1096357 C40.2167941,34.268168 41.7742381,34.9193307 43.3984885,34.9193307 C45.0227388,34.9193307 46.5801829,34.268168 47.726898,33.1096357 C50.1198314,30.7079412 53.9907835,30.7079412 56.3837169,33.1096357 L57.6533837,34.388368 C59.4337359,36.1814618 62.2226804,36.4611316 64.3191343,35.0567963 L65.7619375,34.0686849 C67.8583914,32.6643497 70.6473359,32.9440195 72.4276881,34.7371132 L72.4565441,34.7661753 C74.0686761,36.3705625 76.5142465,36.7674491 78.5451735,35.7542867 C80.037899,35.0178385 81.7848424,35.0178385 83.2775678,35.7542867 L87,37.614261 Z" id="Path" fill="#D0D8DA"></path>
                <path d="M37.1429134,58 C35.9488793,58.0010667 34.8801653,57.2448296 34.4634477,56.1039713 L20.1805818,16.9339634 C19.8233874,15.958466 20.0037573,14.8627784 20.6537477,14.0596357 C21.3037382,13.2564929 22.3246003,12.8679113 23.3317851,13.040266 C24.3389699,13.2126206 25.1794622,13.9197267 25.5366565,14.8952241 L39.8195225,54.0623194 C40.0847254,54.7864556 40.0567175,55.588378 39.7416682,56.2914473 C39.4266189,56.9945165 38.850372,57.5410588 38.1398574,57.8106874 C37.8209508,57.9327207 37.4835267,57.9967948 37.1429134,58 L37.1429134,58 Z" id="Path" fill="#D0D8DA"></path>
                <path d="M46.2523564,58 C44.8920287,57.9983639 43.7375997,56.9436636 43.5376323,55.5197953 L38.0422395,16.4151377 C37.8679547,15.3746572 38.2408308,14.3160256 39.0161571,13.6500909 C39.7914833,12.9841562 40.847192,12.8157634 41.7735695,13.2102647 C42.699947,13.604766 43.351144,14.5000509 43.4744353,15.5486653 L48.9698281,54.6533229 C49.1926872,56.241439 48.1569719,57.7201263 46.6562678,57.9563856 C46.5229369,57.9822371 46.3878736,57.9968213 46.2523564,58 Z" id="Path" fill="#D0D8DA"></path>
                <path d="M66.859645,58 C66.5195347,58 66.1821205,57.938466 65.8626836,57.8193894 C65.1516362,57.5502841 64.5747188,57.0038752 64.2590997,56.300606 C63.9434806,55.5973367 63.9150708,54.7949428 64.1801327,54.0702936 L78.4632472,14.8955921 C78.8204477,13.9199053 79.6609546,13.2126619 80.6681569,13.0402738 C81.6753593,12.8678857 82.6962391,13.2565427 83.3462409,14.0598414 C83.9962427,14.8631402 84.1766156,15.9590405 83.8194151,16.9347274 L69.5363006,56.1123419 C69.1171274,57.2489807 68.050479,58.0012127 66.859645,58 Z" id="Path" fill="#D0D8DA"></path>
                <path d="M58.7510336,58 C58.6148569,58.0008654 58.4788317,57.9901616 58.3442796,57.9679382 C56.843225,57.7315069 55.8072678,56.2517428 56.0301789,54.6624702 L61.5268551,15.5293368 C61.6566412,14.4874107 62.3070252,13.600549 63.2283038,13.2092465 C64.1495825,12.8179439 65.1985703,12.9830169 65.9725272,13.6410886 C66.7464841,14.2991602 67.1251213,15.3479528 66.9630679,16.3848012 L61.4663917,55.5179346 C61.2663776,56.9428398 60.111679,57.9983081 58.7510336,58 Z" id="Path" fill="#D0D8DA"></path>
                <path d="M38.1377667,57.8248873 C37.8164691,57.9395771 37.4787199,57.998753 37.1383918,58 C35.9435035,58.0039514 34.8725633,57.2470866 34.4543565,56.103098 L33.0266781,52.1634106 L20.1775729,16.8521387 C19.6323311,15.337372 20.3844507,13.6566641 21.8622333,13.0875486 C21.9478941,13.0583657 22.0621083,13.0291829 22.147769,13 L26.8591076,31.0058304 C27.130393,32.0792424 27.9497879,32.9179411 28.9996487,33.1967996 C30.0495095,33.4756581 31.1647686,33.1508321 31.913089,32.3482424 L39.1371415,52.1634106 L39.8224271,54.0602971 C40.3676689,55.5750639 39.6155493,57.2557718 38.1377667,57.8248873 L38.1377667,57.8248873 Z" id="Path" fill="#B8BEBF"></path>
                <path d="M48.9664581,54.6248845 C49.0836932,55.3953608 48.8908984,56.1810302 48.43062,56.8085101 C47.9703416,57.43599 47.2804153,57.8537004 46.513095,57.9694604 C46.3683923,57.9938175 46.2216353,58.0036454 46.0749944,57.9987988 C44.629677,58.0007063 43.4003273,56.9404452 43.1835307,55.5050361 L42.6870168,52.1311218 L40,34 C41.8152973,35.1048266 44.0717478,35.1826029 45.9581676,34.2053687 L48.586771,52.1311218 L48.9664581,54.6248845 Z" id="Path" fill="#B8BEBF"></path>
                <path d="M77,36.4727257 L71.1309774,52.1818065 L69.6710216,56.1090767 C69.2433598,57.2494597 68.1482074,58.003939 66.9263045,58 C66.5782822,57.998757 66.232897,57.9397675 65.9043354,57.8254392 C64.3931426,57.2581175 63.6240187,55.5827069 64.1815875,54.0727143 L64.8823663,52.1818065 L71.6857607,34 C72.1571414,34.219841 72.5830085,34.5257235 72.9413227,34.9018176 L72.9705218,34.9309085 C74.0374989,35.9846683 75.4993311,36.5440156 77,36.4727257 Z" id="Path" fill="#B8BEBF"></path>
                <path d="M64,35.8635352 L61.4597244,52.24192 L60.9516693,55.5521383 C60.7298335,56.9604485 59.4719083,58.000693 57.9929954,57.9988215 C57.842946,58.0035766 57.6927777,57.9939343 57.5447115,57.970037 C56.7595554,57.8564624 56.0535921,57.4466379 55.5826149,56.8310041 C55.1116376,56.2153704 54.9143614,55.4445336 55.0343215,54.6886031 L55.4228343,52.24192 L58.0826522,35 C59.6939872,36.4104964 62.0271728,36.7509847 64,35.8635352 L64,35.8635352 Z" id="Path" fill="#B8BEBF"></path>
                <rect id="Rectangle" fill="#93999A" x="0" y="53" width="105" height="11"></rect>
                <path d="M14.5833333,58.5 C11.3616723,58.5 8.75,56.0375661 8.75,53 L0,53 L0,64 L105,64 L105,58.5 L14.5833333,58.5 Z" id="Path" fill="#656B76"></path>
                <path d="M23,108 C23,109.656854 21.7358628,111 20.1764706,111 L11,111 L12.0447059,105 L20.1764706,105 C21.7358628,105 23,106.343146 23,108 Z" id="Path" fill="#B8BEBF"></path>
                <path d="M23,123 C23,124.656854 21.7060253,126 20.1098266,126 L8,126 L9.0982659,120 L20.1098266,120 C21.7060253,120 23,121.343146 23,123 Z" id="Path" fill="#B8BEBF"></path>
            </g>
        </g>
    </g>
</svg>