<?xml version="1.0" encoding="UTF-8"?>
<svg width="238px" height="253px" viewBox="0 0 238 253" version="1.1" xmlns="http://www.w3.org/2000/svg" xmlns:xlink="http://www.w3.org/1999/xlink">
    <title>Group 2</title>
    <g id="Page-1" stroke="none" stroke-width="1" fill="none" fill-rule="evenodd">
        <g id="iPhone-13-Copy-12" transform="translate(-76.000000, -475.000000)" fill-rule="nonzero">
            <g id="Group-2" transform="translate(76.000000, 475.000000)">
                <path d="M171.016335,196.869139 C99.6607335,192.918468 44.7253096,132.611318 47.6985776,61.4930556 C48.6442427,38.9075099 67.3033501,21.0825399 89.9993132,21.0833333 L207.926285,21.0833333 C204.746339,8.69746728 193.554064,0.0246163759 180.718339,0 L50.1328985,0 C40.5198276,0 31.193207,3.259887 23.6870007,9.24152778 L0,28.1111111 C8.70997791,28.1112554 16.9678189,31.9732888 22.5309223,38.6483902 C28.0940258,45.3234917 30.3849101,54.1187479 28.7814346,62.6456111 L3.90902544,194.767833 C1.21054017,209.148564 5.07829286,223.979443 14.4623044,235.234332 C23.846316,246.48922 37.7728903,253 52.4613794,253 L188.64223,253 C202.299537,252.990538 215.34333,247.349208 224.674339,237.416416 C234.005348,227.483625 238.790612,214.146055 237.893128,200.572778 L171.016335,196.869139 Z" id="Path" fill="#D0D8DA"></path>
                <path d="M51,106 C51,109.865993 47.9450018,113 44.1764706,113 L22,113 L24.5247059,99 L44.1764706,99 C47.9450018,99 51,102.134007 51,106 Z" id="Path" fill="#B8BEBF"></path>
                <path d="M51,143 C51,146.865993 47.8944607,150 44.0635838,150 L15,150 L17.6358382,136 L44.0635838,136 C47.8944607,136 51,139.134007 51,143 Z" id="Path" fill="#B8BEBF"></path>
            </g>
        </g>
    </g>
</svg>