<svg xmlns="http://www.w3.org/2000/svg"  viewBox="0 0 128 128" width="128px" height="128px"><path fill="#BA7879" d="M75.3 35.599999999999994A45 35 0 1 0 75.3 105.6A45 35 0 1 0 75.3 35.599999999999994Z"/><path fill="#825559" d="M118.2,60c-1.9-4.7-8.5-4.8-10.8-0.3c-8.3,16.9-29.4,28.8-54,28.8c-0.1,0-0.1,0-0.2,0c-6.3,0-8.3,8.3-2.8,11.2c7.1,3.7,15.7,5.8,24.8,5.8c24.9,0,45-15.7,45-35C120.3,66.9,119.6,63.4,118.2,60z"/><path fill="#825559" d="M69.8,105.3c11-7.6,18.6-22.5,18.6-39.7c0-11.5,1.2-17.3-9.6-20.6C77.3,44.9,47.6,103.2,69.8,105.3z"/><path fill="#444B54" d="M75.3,108.6c-26.5,0-48-17-48-38c0-1.7,1.3-3,3-3s3,1.3,3,3c0,17.6,18.8,32,42,32s42-14.4,42-32c0-14-11.8-26.3-29.4-30.5c-1.6-0.4-2.6-2-2.2-3.6s2-2.6,3.6-2.2c20.4,4.9,34,19.5,34,36.4C123.3,91.6,101.8,108.6,75.3,108.6z"/><path fill="#FCF5D0" d="M41.8 25.7A31.7 14.2 0 1 0 41.8 54.099999999999994A31.7 14.2 0 1 0 41.8 25.7Z" transform="rotate(-21.181 41.835 39.913)"/><path fill="#825559" d="M88.8 62.599999999999994A3 3 0 1 0 88.8 68.6A3 3 0 1 0 88.8 62.599999999999994Z"/><path fill="#BA7879" d="M70.9,27.6c0.2,0.3,0.3,0.6,0.4,0.9c2.8,7.3-8.1,18.4-24.4,24.7c-16.3,6.3-31.8,5.5-34.7-1.8c-0.5-1.3-0.6-2.6-0.3-4.1c-0.3,0.8-0.6,1.6-0.9,2.4C2.6,73,10.4,97.3,28.6,103.9c18.2,6.6,39.8-7,48.3-30.3c6.4-17.5,3.6-35.6-6-46.3"/><path fill="#825559" d="M65.2 53.1A3 3 0 1 0 65.2 59.1A3 3 0 1 0 65.2 53.1Z" transform="rotate(-70.001 65.174 56.056)"/><path fill="#825559" d="M20.5 67.7A3 3 0 1 0 20.5 73.7A3 3 0 1 0 20.5 67.7Z" transform="rotate(-70.001 20.488 70.652)"/><path fill="#825559" d="M30.7 77.7A3 3 0 1 0 30.7 83.7A3 3 0 1 0 30.7 77.7Z" transform="rotate(-70.001 30.651 80.736)"/><path fill="#825559" d="M19.4,98.4c-3.8-3.4-1.6-10.7,3.4-10.2c33,3.2,40.4-14.5,45.6-40.9c0-0.1,0.1-0.1,0.1-0.2c0-5.9,10.7-5,11.5,1.2c1,7.9,0.1,16.7-3,25.3c-8.5,23.4-30.1,36.9-48.3,30.3C25.1,102.7,22,100.8,19.4,98.4z"/><path fill="#444B54" d="M38.2,108.6c-3.6,0-7.2-0.6-10.6-1.9C17.9,103.2,10.6,95.2,7,84C3.5,73.1,3.9,60.6,8.3,48.6c0.3-0.8,0.6-1.7,1-2.5c0.6-1.4,2.2-2.2,3.6-1.7c1.5,0.4,2.4,1.9,2.1,3.4c-0.2,0.9-0.1,1.7,0.1,2.4c1.9,4.9,15.5,6,30.8,0.1c7.5-2.9,14-6.9,18.3-11.3c3.6-3.7,5.2-7.2,4.4-9.5c-0.1-0.2-0.1-0.3-0.2-0.5c-2.6-4.5-15.5-5.4-30.6,0.4c-6.8,2.6-13,6.3-17.3,10.3c-1.2,1.1-3.1,1-4.2-0.2c-1.1-1.2-1-3.1,0.2-4.2c4.8-4.5,11.6-8.5,19.2-11.4c16.5-6.4,31.7-5.9,37.1,1.1c0.2,0.1,0.3,0.2,0.4,0.4c10.6,11.9,13.1,31.3,6.5,49.3C75.4,86.6,67.6,96.5,58,102.6C51.6,106.6,44.8,108.6,38.2,108.6z M12.2,56.3c-2.2,8.9-2.1,17.9,0.5,25.9c3,9.3,9,16.1,16.9,19c7.9,2.9,16.8,1.6,25.1-3.6c8.6-5.4,15.4-14.2,19.3-24.9c4.6-12.7,4.3-26-0.6-36.1c-1.1,2.2-2.7,4.5-5,6.8c-4.9,5-12.2,9.5-20.4,12.7C32.6,62,18.5,61.9,12.2,56.3z"/></svg>