<?xml version="1.0" encoding="UTF-8"?>
<svg width="134px" height="169px" viewBox="0 0 134 169" version="1.1" xmlns="http://www.w3.org/2000/svg" xmlns:xlink="http://www.w3.org/1999/xlink">
    <title>Group 6</title>
    <g id="Page-1" stroke="none" stroke-width="1" fill="none" fill-rule="evenodd">
        <g id="iPhone-13-Copy-4" transform="translate(-143.000000, -219.000000)" fill-rule="nonzero">
            <g id="Group-6" transform="translate(143.000000, 219.000000)">
                <path d="M95.1663945,144.897236 C92.2100417,145.459423 89.3147894,143.664065 88.48999,140.75717 C87.6651905,137.850274 89.1830533,134.791207 91.9901567,133.70301 L109.66307,126.839205 C116.082609,124.34986 120.761681,118.699177 122.029626,111.904729 C123.297572,105.110281 120.973631,98.1406912 115.887565,93.4844457 C110.711274,88.7742295 103.637766,86.7714373 96.7748739,88.0728806 L81.9698826,90.9072316 C79.9177309,91.3239252 77.8009833,90.6006581 76.4273063,89.0134004 C75.0536293,87.4261427 74.6349435,85.2197644 75.3310027,83.2361316 C76.0270619,81.2524989 77.7304833,79.7976315 79.7913093,79.4266489 L94.5963005,76.5893759 C105.059945,74.6118861 115.841598,77.6711397 123.729266,84.8557461 C131.791555,92.2423734 135.472591,103.295574 133.458117,114.068974 C131.443643,124.842374 124.020831,133.800182 113.839881,137.744152 L96.1669676,144.596269 C95.843101,144.726528 95.5082273,144.827256 95.1663945,144.897236 Z" id="Path" fill="#B8BEBF"></path>
                <path d="M112.340458,84.6686282 C107.761767,83.3678265 103.932126,80.2317387 101.767638,76.0105603 C99.4279152,75.9522642 97.0884208,76.1354459 94.7866401,76.5571702 L79.8378474,79.3954498 C77.7570046,79.7665639 76.0370378,81.2219474 75.3342178,83.2062838 C74.6313977,85.1906203 75.0541502,87.3977812 76.4411698,88.985602 C77.8281893,90.5734228 79.965497,91.2969464 82.0375814,90.880105 L96.986374,88.0447486 C103.919685,86.7440311 111.064772,88.7520576 116.290581,93.4699255 C121.420727,98.1270522 123.764718,105.094431 122.486578,111.887176 C121.208437,118.67992 116.490137,124.330941 110.014438,126.824825 L92.1698672,133.679373 C90.1922662,134.416827 88.7646503,136.154145 88.4307796,138.229604 C88.0969089,140.305064 88.9081819,142.399154 90.5555952,143.714264 C92.2030086,145.029374 94.4329479,145.363045 96.3960583,144.588187 L114.240629,137.73364 C117.413907,136.498981 120.366229,134.762787 122.983764,132.591999 C122.401366,127.533029 123.450462,122.420789 125.979396,117.994298 C129.476187,111.895105 129.963812,104.535129 127.301989,98.0317432 C124.640165,91.5283579 119.124012,86.6026008 112.340458,84.6715513 L112.340458,84.6686282 Z" id="Path" fill="#93999A"></path>
                <path d="M100.723085,145.226248 L88.8570007,73.7474998 C87.922641,68.1219804 83.0746815,64 77.394683,64 L23.6385624,64 C19.681082,64 15.8415266,65.3529175 12.751394,67.8354166 L3,75.6666664 L3,75.6666664 C6.58569778,75.6667263 9.98526118,77.2695465 12.275463,80.0398454 C14.5656649,82.8101444 15.5087693,86.4603494 14.8486553,89.9991661 L4.60925596,144.832498 C3.49844489,150.800284 5.09034552,156.954887 8.95287053,161.625773 C12.8153955,166.296658 18.5478345,169 24.5942397,169 L80.6567668,169 C86.6356353,169.002808 92.312729,166.363358 96.1783191,161.783566 C100.043909,157.203774 101.706182,151.147843 100.723085,145.226248 Z" id="Path" fill="#E9F1F2"></path>
                <path d="M73.4184909,145.704583 C44.0367726,144.064977 21.4163039,119.036318 22.6405908,89.5208333 L22.6405908,89.5208333 C23.0299823,80.1473855 30.7131441,72.7496707 40.0585407,72.75 L88.6167055,72.75 C87.3073159,67.6096208 82.6987322,64.0102163 77.4134336,64 L23.6429582,64 C19.6846349,64 15.8442617,65.3529175 12.7534709,67.8354167 L3,75.6666667 C6.58646149,75.6667265 9.98674896,77.2695467 12.2774386,80.0398458 C14.5681283,82.8101448 15.5114336,86.4603499 14.851179,89.9991667 L4.60959871,144.8325 C3.49845772,150.800787 5.09106177,156.955896 8.95506654,161.626897 C12.8190713,166.297898 18.5535431,169 24.6017444,169 L80.6762122,169 C86.2998095,168.996073 91.6707828,166.654809 95.512963,162.532505 C99.3551433,158.4102 101.325546,152.874845 100.955994,147.241667 L73.4184909,145.704583 Z" id="Path" fill="#D0D8DA"></path>
                <path d="M59,125.333333 C59,128.462947 56.3137085,131 53,131 C49.6862915,131 47,128.462947 47,125.333333 C47,122.216667 53,114 53,114 C53,114 59,122.216667 59,125.333333 Z" id="Path" fill="#EDB88E"></path>
                <path d="M56,124.984962 C52.6862915,124.984962 50,122.291938 50,118.969925 C50.0395754,118.295156 50.1832827,117.630619 50.426,117 C48.7662092,119.407058 47.6015298,122.121571 47,124.984962 C47,128.306976 49.6862915,131 53,131 C56.3137085,131 59,128.306976 59,124.984962 C58.9944277,124.720907 58.9632815,124.458018 58.907,124.2 C58.0214735,124.707954 57.0202165,124.978318 56,124.984962 L56,124.984962 Z" id="Path" fill="#DA9367"></path>
                <path d="M76,64 L29,64 L34.0319375,71.4501 C38.3115686,77.7866138 39.6843452,85.611692 37.8125,93 L67.1875,93 C65.3156548,85.611692 66.6884314,77.7866138 70.9680625,71.4501 L76,64 Z" id="Path" fill="#D0D8DA"></path>
                <polygon id="Path" fill="#93999A" points="55.3333333 105 49.6666667 105 44 93 61 93"></polygon>
                <path d="M55.3333333,99 L58.1666667,99 L61,93 L44,93 L49.6666667,105 C49.6666667,101.686292 52.2037198,99 55.3333333,99 Z" id="Path" fill="#656B76"></path>
                <path d="M46.0142487,76 C44.8720263,76.0058471 43.8254141,75.398398 43.3148502,74.4332385 L37.3161867,63.1007319 C36.8372003,62.1948319 36.9062427,61.11637 37.4973063,60.2715921 C38.0883699,59.4268143 39.1116581,58.9440625 40.1817082,59.0051845 C41.2517582,59.0663066 42.2060041,59.6620167 42.6849905,60.5679166 L48.683654,71.9004233 C49.1471872,72.7766152 49.0987002,73.816817 48.5554347,74.651136 C48.0121692,75.485455 47.0512015,75.9955216 46.0142487,76 L46.0142487,76 Z" id="Path" fill="#B8BEBF"></path>
                <path d="M58.001003,79 C57.0052114,79.0007271 56.0739951,78.5304813 55.5156798,77.7449602 C54.9573646,76.959439 54.8447872,75.9611201 55.215222,75.0805471 L61.2125976,60.7968296 C61.8286778,59.3311131 63.5753461,58.6187059 65.1138904,59.2056236 C66.6524347,59.7925413 67.4002396,61.4565302 66.7841595,62.9222468 L60.7867839,77.2059642 C60.3306012,78.2903735 59.2273013,79.0008954 58.001003,79 Z" id="Path" fill="#B8BEBF"></path>
                <path d="M81.6176471,52 L23.3823529,52 L3,4.48041263 L8.51197059,1.74750913 C12.3742717,-0.167664525 16.9198459,-0.167664525 20.7821471,1.74750913 L20.7821471,1.74750913 C24.2883008,3.48624028 28.3765117,3.65445653 32.0157353,2.20973382 L35.1313235,0.97328277 C38.7708045,-0.469947359 42.8583768,-0.30175739 46.3649118,1.43550746 L46.3649118,1.43550746 C50.2264546,3.35386672 54.7735454,3.35386672 58.6350882,1.43550746 L58.6350882,1.43550746 C62.1416232,-0.30175739 66.2291955,-0.469947359 69.8686765,0.97328277 L72.9842647,2.20973382 C76.6234883,3.65445653 80.7116992,3.48624028 84.2178529,1.74750913 L84.2178529,1.74750913 C88.0801541,-0.167664525 92.6257283,-0.167664525 96.4880294,1.74750913 L102,4.48041263 L81.6176471,52 Z" id="Path" fill="#E9F1F2"></path>
                <path d="M37.1429134,58 C35.9488793,58.0010667 34.8801653,57.2448296 34.4634477,56.1039713 L20.1805818,16.9339634 C19.8233874,15.958466 20.0037573,14.8627784 20.6537477,14.0596357 C21.3037382,13.2564929 22.3246003,12.8679113 23.3317851,13.040266 C24.3389699,13.2126206 25.1794622,13.9197267 25.5366565,14.8952241 L39.8195225,54.0623194 C40.0847254,54.7864556 40.0567175,55.588378 39.7416682,56.2914473 C39.4266189,56.9945165 38.850372,57.5410588 38.1398574,57.8106874 C37.8209508,57.9327207 37.4835267,57.9967948 37.1429134,58 L37.1429134,58 Z" id="Path" fill="#D0D8DA"></path>
                <path d="M46.0025706,58 C44.5185768,57.9983639 43.2591997,56.9436636 43.0410534,55.5197953 L37.0460795,16.4151377 C36.8559506,15.3746572 37.2627245,14.3160256 38.108535,13.6500909 C38.9543455,12.9841562 40.1060276,12.8157634 41.1166213,13.2102647 C42.1272149,13.604766 42.8376117,14.5000509 42.9721112,15.5486653 L48.9670852,54.6533229 C49.2102042,56.241439 48.080333,57.7201263 46.4432012,57.9563856 C46.2977493,57.9822371 46.1504075,57.9968213 46.0025706,58 Z" id="Path" fill="#D0D8DA"></path>
                <path d="M66.859645,58 C66.5195347,58 66.1821205,57.938466 65.8626836,57.8193894 C65.1516362,57.5502841 64.5747188,57.0038752 64.2590997,56.300606 C63.9434806,55.5973367 63.9150708,54.7949428 64.1801327,54.0702936 L78.4632472,14.8955921 C78.8204477,13.9199053 79.6609546,13.2126619 80.6681569,13.0402738 C81.6753593,12.8678857 82.6962391,13.2565427 83.3462409,14.0598414 C83.9962427,14.8631402 84.1766156,15.9590405 83.8194151,16.9347274 L69.5363006,56.1123419 C69.1171274,57.2489807 68.050479,58.0012127 66.859645,58 Z" id="Path" fill="#D0D8DA"></path>
                <path d="M58.0011276,58 C57.8525711,58.0008654 57.70418,57.9901616 57.5573959,57.9679382 C55.9198818,57.7315069 54.7897467,56.2517428 55.0329224,54.6624702 L61.0292965,15.5293368 C61.1708813,14.4874107 61.8803911,13.600549 62.8854223,13.2092465 C63.8904536,12.8179439 65.034804,12.9830169 65.8791206,13.6410886 C66.7234372,14.2991602 67.136496,15.3479528 66.9597105,16.3848012 L60.9633364,55.5179346 C60.7451392,56.9428398 59.485468,57.9983081 58.0011276,58 Z" id="Path" fill="#D0D8DA"></path>
                <rect id="Rectangle" fill="#93999A" x="0" y="52" width="105" height="12"></rect>
                <path d="M46.0263643,136.232494 C34.6966176,134.716281 23.212789,134.769355 11.8974595,136.390227 L5.75734421,137.266519 L4.35047718,144.779269 C3.23064589,150.759028 4.82455909,156.92828 8.69903879,161.610407 C12.5735185,166.292534 18.3260383,169.0011 24.393235,169 L80.6096609,169 C86.6034152,169 92.2936728,166.355784 96.167907,161.769562 C100.042141,157.18334 101.70787,151.119959 100.722325,145.191126 L98.5290108,132 L98.3571575,132.052578 C81.4066087,137.152077 63.5681592,138.576921 46.0263643,136.232494 Z" id="Path" fill="#EDB88E"></path>
                <path d="M73.3443605,145.574854 C63.4797422,145.020938 53.9588014,141.734498 45.8318951,136.078094 C34.5654307,134.58302 23.1489818,134.643212 11.8986891,136.257001 L5.75761781,137.136874 L4.35053175,144.680317 C3.23052611,150.684506 4.82468747,156.878962 8.69977038,161.580217 C12.5748533,166.281472 18.3282687,169.001105 24.3964101,169 L80.6215883,169 C86.2603,168.996051 91.6457088,166.641749 95.4982156,162.496488 C99.3507225,158.351227 101.326421,152.785046 100.955876,147.120497 L73.3443605,145.574854 Z" id="Path" fill="#DA9367"></path>
                <path d="M14.5833333,58 C11.3616723,58 8.75,55.3137085 8.75,52 L0,52 L0,64 L105,64 L105,58 L14.5833333,58 Z" id="Path" fill="#656B76"></path>
                <path d="M24,108 C24,109.656854 22.6305181,111 20.9411765,111 L11,111 L12.1317647,105 L20.9411765,105 C22.6305181,105 24,106.343146 24,108 Z" id="Path" fill="#B8BEBF"></path>
                <path d="M23,122 C23,123.656854 21.7060253,125 20.1098266,125 L8,125 L9.0982659,119 L20.1098266,119 C21.7060253,119 23,120.343146 23,122 Z" id="Path" fill="#B8BEBF"></path>
            </g>
        </g>
    </g>
</svg>