<?xml version="1.0" encoding="UTF-8"?>
<svg width="318px" height="253px" viewBox="0 0 318 253" version="1.1" xmlns="http://www.w3.org/2000/svg" xmlns:xlink="http://www.w3.org/1999/xlink">
    <title>Group 3</title>
    <g id="Page-1" stroke="none" stroke-width="1" fill="none" fill-rule="evenodd">
        <g id="iPhone-13-Copy-12" transform="translate(-56.000000, -372.000000)" fill-rule="nonzero">
            <g id="Group-3" transform="translate(56.000000, 372.000000)">
                <path d="M224.536068,194.75277 C217.420778,196.105279 210.452544,191.786012 208.467434,184.792611 C206.482323,177.799211 210.135484,170.439715 216.891564,167.821735 L259.426371,151.308813 C274.876788,145.319953 286.138283,131.725557 289.189948,115.379493 C292.241613,99.0334298 286.648399,82.2660107 274.40736,71.0640287 C261.949168,59.7322044 244.924792,54.9138925 228.407324,58.0449011 L192.774972,64.8637746 C187.835895,65.8662548 182.74135,64.126221 179.435212,60.307601 C176.129074,56.488981 175.121389,51.1808825 176.796651,46.4086645 C178.471912,41.6364465 182.571672,38.1363308 187.531626,37.2438221 L223.163978,30.4179188 C248.347665,25.6604795 274.296727,33.0204231 293.280605,50.3051282 C312.684759,68.0758547 321.544201,94.6676118 316.695807,120.586227 C311.847412,146.504843 293.98234,168.055511 269.479034,177.543902 L226.944227,194.028704 C226.164752,194.342081 225.358784,194.584413 224.536068,194.75277 Z" id="Path" fill="#B8BEBF"></path>
                <path d="M265.893696,49.8549606 C254.870921,46.7254957 245.651415,39.1807048 240.44061,29.0254059 C234.807944,28.8851574 229.175828,29.3258554 223.634504,30.3404385 L187.64667,37.1687632 C182.637233,38.0615885 178.496572,41.5629459 176.804598,46.3368567 C175.112624,51.1107676 176.130362,56.420749 179.469483,60.2407237 C182.808604,64.0606983 187.953974,65.8013493 192.942325,64.7985136 L228.93016,57.9772211 C245.621464,54.8479589 262.822599,59.6788632 275.403251,71.0290961 C287.753603,82.233198 293.396543,98.9952987 290.319539,115.337263 C287.242535,131.679227 275.883662,145.274438 260.294017,151.274217 L217.334865,167.764868 C212.573974,169.539033 209.137121,173.718667 208.333358,178.711801 C207.529595,183.704936 209.48266,188.742893 213.448655,191.90678 C217.41465,195.070667 222.783023,195.873413 227.509029,194.009263 L270.468181,177.518612 C278.107555,174.548273 285.214997,170.371342 291.516468,165.148867 C290.114399,152.978012 292.640001,140.679 298.728175,130.029759 C307.146376,115.356339 308.320289,97.6497296 301.912196,82.003904 C295.504102,66.3580785 282.224474,54.5077062 265.893696,49.8619929 L265.893696,49.8549606 Z" id="Path" fill="#93999A"></path>
                <path d="M237.327492,195.716579 L208.509859,23.4868328 C206.240699,9.9320098 194.467084,0 180.672802,0 L50.1222231,0 C40.5111991,0 31.1865646,3.25988693 23.6819568,9.24152758 L0,28.1111105 L0,28.1111105 C8.70812319,28.1112548 16.9642057,31.9732881 22.5261245,38.6483894 C28.0880433,45.3234907 30.3784398,54.1187467 28.7753058,62.6456098 L3.90819304,194.767829 C1.21050902,209.147351 5.0765534,223.977014 14.4569713,235.231624 C23.8373892,246.486234 37.7590266,253 52.4431536,253 L188.595005,253 C203.115114,253.006767 216.902342,246.646949 226.290203,235.611831 C235.678065,224.576712 239.715014,209.984803 237.327492,195.716579 Z" id="Path" fill="#E9F1F2"></path>
            </g>
        </g>
    </g>
</svg>