<svg xmlns="http://www.w3.org/2000/svg"  viewBox="0 0 128 128" width="128px" height="128px"><path fill="#755da5" d="M90 53.5A12.5 12.5 0 1 0 90 78.5A12.5 12.5 0 1 0 90 53.5Z"/><path fill="#755da5" d="M77 75.5A12.5 12.5 0 1 0 77 100.5A12.5 12.5 0 1 0 77 75.5Z"/><path fill="#a694d3" d="M64 53.5A12.5 12.5 0 1 0 64 78.5 12.5 12.5 0 1 0 64 53.5zM64 97.5A12.5 12.5 0 1 0 64 122.5 12.5 12.5 0 1 0 64 97.5z"/><path fill="#64578c" d="M76.4,111.6c0.8-6.7-8.2-9.3-11.2-3.3c-0.3,0.6-0.7,1.2-1.2,1.7c-0.5,0.5-1,0.9-1.6,1.2c-5.9,3.2-3.2,12.1,3.4,11.2c0.1,0,0.2,0,0.3,0c5.3-0.8,9.5-5.1,10.3-10.3C76.4,111.9,76.4,111.7,76.4,111.6z"/><path fill="#66518e" d="M92,78.3c5.3-0.8,9.6-5.1,10.4-10.4c0-0.1,0-0.2,0-0.2c0.6-4.7-6.2-6.5-7.9-2c-1,2.6-2.8,4.7-5.1,6.1c-3.3,2-1.4,7.2,2.4,6.7C91.9,78.4,91.9,78.4,92,78.3z"/><path fill="#594a7f" d="M89.4,89.8c0-0.1,0-0.2,0-0.3c0.7-6-7.8-7.7-9.7-2c-0.7,2.2-2,4.3-3.9,6.4c-2.4,2.7,0,7,3.5,6.4c0.1,0,0.1,0,0.2,0C84.6,99.3,88.6,95,89.4,89.8z"/><path fill="#ccc4f7" d="M38 53.5A12.5 12.5 0 1 0 38 78.5A12.5 12.5 0 1 0 38 53.5Z"/><path fill="#fff" d="M32.6,65.4c-0.6,0-1.2-0.2-1.7-0.5c-1.4-0.9-1.7-2.8-0.8-4.2c1.8-2.6,4.7-4.2,7.9-4.2c1.7,0,3,1.3,3,3s-1.3,3-3,3c-1.2,0-2.2,0.6-2.9,1.5C34.5,64.9,33.6,65.4,32.6,65.4z"/><path fill="#ccc4f7" d="M77 31.5A12.5 12.5 0 1 0 77 56.5A12.5 12.5 0 1 0 77 31.5Z"/><path fill="#ccc4f7" d="M51 31.5A12.5 12.5 0 1 0 51 56.5A12.5 12.5 0 1 0 51 31.5Z"/><path fill="#fff" d="M44.5,47c-1.7,0-3-1.3-3-3c0-5.2,4.3-9.5,9.5-9.5c1.7,0,3,1.3,3,3s-1.3,3-3,3c-1.9,0-3.5,1.6-3.5,3.5C47.5,45.7,46.2,47,44.5,47z"/><path fill="#a694d3" d="M51 75.5A12.5 12.5 0 1 0 51 100.5A12.5 12.5 0 1 0 51 75.5Z"/><path fill="#444b54" d="M64 81.5c-8.5 0-15.5-7-15.5-15.5s7-15.5 15.5-15.5 15.5 7 15.5 15.5S72.5 81.5 64 81.5zM64 56.5c-5.2 0-9.5 4.3-9.5 9.5s4.3 9.5 9.5 9.5 9.5-4.3 9.5-9.5S69.2 56.5 64 56.5zM64 125.5c-8.5 0-15.5-7-15.5-15.5s7-15.5 15.5-15.5 15.5 7 15.5 15.5S72.5 125.5 64 125.5zM64 100.5c-5.2 0-9.5 4.3-9.5 9.5s4.3 9.5 9.5 9.5 9.5-4.3 9.5-9.5S69.2 100.5 64 100.5z"/><path fill="#444b54" d="M38 81.5c-8.5 0-15.5-7-15.5-15.5s7-15.5 15.5-15.5 15.5 7 15.5 15.5S46.5 81.5 38 81.5zM38 56.5c-5.2 0-9.5 4.3-9.5 9.5s4.3 9.5 9.5 9.5 9.5-4.3 9.5-9.5S43.2 56.5 38 56.5zM77 59.5c-8.5 0-15.5-7-15.5-15.5s7-15.5 15.5-15.5 15.5 7 15.5 15.5S85.5 59.5 77 59.5zM77 34.5c-5.2 0-9.5 4.3-9.5 9.5s4.3 9.5 9.5 9.5 9.5-4.3 9.5-9.5S82.2 34.5 77 34.5z"/><path fill="#444b54" d="M51 59.5c-8.5 0-15.5-7-15.5-15.5 0-3.5 1.2-7 3.4-9.7 3-3.7 7.4-5.8 12.1-5.8 8.5 0 15.5 7 15.5 15.5S59.5 59.5 51 59.5zM51 34.5c-2.9 0-5.6 1.3-7.4 3.5-1.4 1.7-2.1 3.8-2.1 6 0 5.2 4.3 9.5 9.5 9.5s9.5-4.3 9.5-9.5S56.2 34.5 51 34.5zM51 103.5c-8.5 0-15.5-7-15.5-15.5s7-15.5 15.5-15.5 15.5 7 15.5 15.5S59.5 103.5 51 103.5zM51 78.5c-5.2 0-9.5 4.3-9.5 9.5s4.3 9.5 9.5 9.5 9.5-4.3 9.5-9.5S56.2 78.5 51 78.5zM90 81.5c-8.5 0-15.5-7-15.5-15.5s7-15.5 15.5-15.5 15.5 7 15.5 15.5S98.5 81.5 90 81.5zM90 56.5c-5.2 0-9.5 4.3-9.5 9.5s4.3 9.5 9.5 9.5 9.5-4.3 9.5-9.5S95.2 56.5 90 56.5z"/><path fill="#444b54" d="M77,103.5c-8.5,0-15.5-7-15.5-15.5s7-15.5,15.5-15.5s15.5,7,15.5,15.5S85.5,103.5,77,103.5z M77,78.5c-5.2,0-9.5,4.3-9.5,9.5s4.3,9.5,9.5,9.5s9.5-4.3,9.5-9.5S82.2,78.5,77,78.5z"/><path fill="#fff" d="M61 63.5c-.2 0-.4 0-.6-.1-.2 0-.4-.1-.6-.2-.2-.1-.3-.2-.5-.3-.2-.1-.3-.2-.4-.4-.6-.6-.9-1.3-.9-2.1s.3-1.6.9-2.1c.7-.7 1.7-1 2.7-.8.2 0 .4.1.6.2.2.1.4.2.5.3.2.1.3.2.4.4.1.1.3.3.4.5.1.2.2.3.3.5.1.2.1.4.2.6 0 .2.1.4.1.6 0 .8-.3 1.6-.9 2.1-.1.1-.3.3-.4.4-.2.1-.3.2-.5.3-.2.1-.4.1-.6.2C61.4 63.5 61.2 63.5 61 63.5zM74 41.5c-.2 0-.4 0-.6-.1-.2 0-.4-.1-.6-.2-.2-.1-.3-.2-.5-.3-.2-.1-.3-.2-.4-.4-.6-.6-.9-1.3-.9-2.1s.3-1.6.9-2.1c1.1-1.1 3.1-1.1 4.2 0 .6.6.9 1.3.9 2.1s-.3 1.6-.9 2.1c-.1.1-.3.3-.4.4-.2.1-.3.2-.5.3-.2.1-.4.1-.6.2C74.4 41.5 74.2 41.5 74 41.5z"/><path fill="#444b54" d="M64,47c-1.7,0-3-1.3-3-3V29.1c0-3.6,0.5-7.2,1.5-10.7c1.6-5.8,4.6-11.2,8.7-15.6c1.1-1.2,3-1.3,4.2-0.2c1.2,1.1,1.3,3,0.2,4.2c-3.4,3.8-5.9,8.3-7.3,13.2c-0.8,2.9-1.3,6-1.3,9V44C67,45.7,65.7,47,64,47z"/><path fill="#70e9d4" d="M75.2,20.2c0,0,6.3-22.5,30-12.8C105.2,7.3,98.3,28.1,75.2,20.2z"/><path fill="#444b54" d="M85.1,25c-3.4,0-7.1-0.7-10.9-2c-1.6-0.5-2.4-2.2-1.9-3.8c0.5-1.6,2.2-2.4,3.8-1.9c6.5,2.2,12.1,2.2,16.8-0.1c4.3-2.1,6.8-5.7,8.2-8.2c-5.6-1.7-10.4-1.5-14.4,0.7c-1.5,0.8-3.3,0.3-4.1-1.2c-0.8-1.4-0.3-3.3,1.2-4.1c6.3-3.5,13.9-3.5,22.5,0c1.5,0.6,2.2,2.2,1.7,3.7c-0.1,0.4-3.3,9.8-12.4,14.3C92.4,24.2,88.9,25,85.1,25z"/><g><path fill="#444b54" d="M57.2,22H38c-1.7,0-3-1.3-3-3s1.3-3,3-3h19.2c1.7,0,3,1.3,3,3S58.9,22,57.2,22z"/></g></svg>