<?xml version="1.0" encoding="UTF-8"?>
<svg width="253px" height="253px" viewBox="0 0 253 253" version="1.1" xmlns="http://www.w3.org/2000/svg" xmlns:xlink="http://www.w3.org/1999/xlink">
    <title>Group</title>
    <g id="Page-1" stroke="none" stroke-width="1" fill="none" fill-rule="evenodd">
        <g id="iPhone-13-Copy-12" transform="translate(-66.000000, -49.000000)" fill-rule="nonzero">
            <g id="Group" transform="translate(66.000000, 49.000000)">
                <path d="M183,155 L70,155 L82.0980625,172.7261 C92.3873884,187.802633 95.6878937,206.420922 91.1875,224 L161.8125,224 C157.312106,206.420922 160.612612,187.802633 170.901937,172.7261 L183,155 Z" id="Path" fill="#D0D8DA"></path>
                <path d="M160.08925,203.3 L140.625,203.3 C125.022956,203.3 112.375,190.943059 112.375,175.7 L169.101,175.7 C169.701312,174.7064 170.245125,173.6921 170.901937,172.7261 L183,155 L70,155 L82.0980625,172.7261 C92.3873884,187.802633 95.6878937,206.420922 91.1875,224 L161.8125,224 C160.092682,217.236992 159.510661,210.245644 160.08925,203.3 L160.08925,203.3 Z" id="Path" fill="#B8BEBF"></path>
                <polygon id="Path" fill="#93999A" points="134.666667 253 120.333333 253 106 227 149 227"></polygon>
                <path d="M134.666667,240 L141.833333,240 L149,227 L106,227 L120.333333,253 C120.333333,245.820298 126.750585,240 134.666667,240 Z" id="Path" fill="#656B76"></path>
                <path d="M111.530872,183 C109.056057,183.01479 106.788397,181.478301 105.682175,179.037015 L92.6850712,150.372439 C91.6472672,148.081046 91.7968591,145.353171 93.0774969,143.21638 C94.3581348,141.079589 96.5752593,139.858511 98.893701,140.013114 C101.212143,140.167717 103.279675,141.674513 104.317479,143.965907 L117.314584,172.630482 C118.318906,174.846733 118.21385,177.477831 117.036775,179.588168 C115.8597,181.698504 113.777603,182.988672 111.530872,183 L111.530872,183 Z" id="Path" fill="#B8BEBF"></path>
                <path d="M141.502173,188 C139.344625,188.001745 137.326989,186.873155 136.117306,184.987904 C134.907623,183.102654 134.663706,180.706688 135.466314,178.593313 L148.460628,144.312391 C149.795469,140.794671 153.579917,139.084894 156.913429,140.493497 C160.246942,141.902099 161.867186,145.895672 160.532346,149.413392 L147.538032,183.694314 C146.549636,186.296896 144.159153,188.002149 141.502173,188 Z" id="Path" fill="#B8BEBF"></path>
                <path d="M111.44598,175.751857 C111.430251,178.174706 111.716961,180.58837 112.298002,182.92459 C112.017437,182.984687 111.731559,183.008997 111.44598,182.997042 C108.96967,183.021409 106.700807,181.471441 105.612902,179.01219 L94.339987,154.016303 L92.5048613,150.031452 C91.1852069,146.528208 92.5344469,142.492864 95.5979513,140.780553 C98.6614557,139.068242 102.401122,140.259199 104.171017,143.510786 L108.955452,154.016303 L117.279058,172.491524 C117.733067,173.506579 117.979214,174.619736 118,175.751857 L111.44598,175.751857 Z" id="Path" fill="#93999A"></path>
                <path d="M160.497353,149.870096 L158.731609,154.405038 L150.256034,176 L135,176 L143.475574,154.405038 L147.360213,144.543338 C148.8035,140.846102 152.914364,139.041335 156.542085,140.512279 C160.169806,141.983222 161.94064,146.172859 160.497353,149.870096 L160.497353,149.870096 Z" id="Path" fill="#93999A"></path>
                <path d="M197,127 L57,127 L8,10.9425462 L21.251,4.26795499 C30.536128,-0.409488359 41.463872,-0.409488359 50.749,4.26795499 L50.749,4.26795499 C59.1779354,8.51447146 69.0061595,8.92530729 77.755,5.39684992 L85.245,2.377056 C93.9944594,-1.14775605 103.821148,-0.736984394 112.251,3.50595092 L112.251,3.50595092 C121.534305,8.19117449 132.465695,8.19117449 141.749,3.50595092 L141.749,3.50595092 C150.178852,-0.736984394 160.005541,-1.14775605 168.755,2.377056 L176.245,5.39684992 C184.99384,8.92530729 194.822065,8.51447146 203.251,4.26795499 L203.251,4.26795499 C212.536128,-0.409488359 223.463872,-0.409488359 232.749,4.26795499 L246,10.9425462 L197,127 Z" id="Path" fill="#E9F1F2"></path>
                <path d="M211,90.4188967 L196.285812,125 L56.8148403,125 L8,10.0789597 L21.1800069,3.44218229 C29.3361647,-0.599048285 38.7918534,-1.10425802 47.3308142,2.04496599 L66.5778083,74.3509093 C67.3055858,77.1468343 69.6025698,79.2552066 72.4463361,79.7375561 C75.2901024,80.2199057 78.1518679,78.9865422 79.7578152,76.5864554 C80.9739223,74.74846 82.9508725,73.5560383 85.1413583,73.3393052 C87.3318442,73.1225721 89.5034444,73.9045241 91.0549639,75.4686823 L95.1693576,79.5904704 C97.9405858,82.375404 101.704409,83.9406989 105.629681,83.9406989 C109.554952,83.9406989 113.318775,82.375404 116.090003,79.5904704 C121.872926,73.8171663 131.227727,73.8171663 137.010649,79.5904704 L140.079011,82.6643462 C144.381528,86.9746677 151.121478,87.646951 156.187908,84.271145 L159.674682,81.8958773 C164.741113,78.5200713 171.481062,79.1923546 175.78358,83.502676 L175.853315,83.5725368 C179.749301,87.4292367 185.659429,88.3832912 190.567503,85.9478045 C194.174922,84.1774964 198.396702,84.1774964 202.004122,85.9478045 L211,90.4188967 Z" id="Path" fill="#D0D8DA"></path>
                <path d="M89.1429921,140 C86.2773104,140.00256 83.7123968,138.187591 82.7122746,135.449531 L48.4333963,41.4415123 C47.5761298,39.1003184 48.0090175,36.4706683 49.5689946,34.5431256 C51.1289717,32.6155829 53.5790407,31.6829872 55.9962843,32.0966384 C58.4135278,32.5102895 60.4307092,34.207344 61.2879756,36.5485378 L95.5668539,130.549567 C96.2033409,132.287493 96.1361221,134.212107 95.3800037,135.899473 C94.6238853,137.58684 93.2408927,138.898541 91.5356578,139.54565 C90.7702819,139.83853 89.9604641,139.992308 89.1429921,140 L89.1429921,140 Z" id="Path" fill="#D0D8DA"></path>
                <path d="M111.50557,140 C108.29025,139.996073 105.561599,137.464793 105.088949,134.047509 L92.0998388,40.1963306 C91.687893,37.6991772 92.5692365,35.1584615 94.4018258,33.5602181 C96.2344152,31.9619748 98.7297265,31.5578321 100.919346,32.5046353 C103.108966,33.4514385 104.648159,35.6001222 104.939574,38.1167967 L117.928685,131.967975 C118.455442,135.779454 116.007388,139.328303 112.460269,139.895325 C112.145124,139.957369 111.825883,139.992371 111.50557,140 Z" id="Path" fill="#D0D8DA"></path>
                <path d="M160.863148,140 C160.046883,140 159.237089,139.852318 158.470441,139.566535 C156.763927,138.920682 155.379325,137.609301 154.621839,135.921454 C153.864353,134.233608 153.79617,132.307863 154.432319,130.568705 L188.711793,36.5494211 C189.569075,34.2077726 191.586291,32.5103886 194.003577,32.0966571 C196.420862,31.6829257 198.870974,32.6157024 200.430978,34.5436194 C201.990982,36.4715365 202.423878,39.1016973 201.566596,41.4433458 L167.287122,135.469621 C166.281106,138.197554 163.72115,140.00291 160.863148,140 Z" id="Path" fill="#D0D8DA"></path>
                <path d="M141.502443,140 C141.180571,140.002077 140.859057,139.976388 140.541025,139.923052 C136.993077,139.355617 134.544451,135.804183 135.071332,131.989928 L148.063476,38.0704083 C148.370243,35.5697856 149.907514,33.4413176 152.085082,32.5021915 C154.262649,31.5630654 156.742075,31.9592406 158.571428,33.5386126 C160.400781,35.1179846 161.295741,37.6350868 160.912706,40.1235229 L147.920562,134.043043 C147.447802,137.462815 144.718514,139.995939 141.502443,140 Z" id="Path" fill="#D0D8DA"></path>
                <path d="M91.53064,139.579729 C90.7595259,139.854985 89.9489278,139.997007 89.1321403,140 C86.2644083,140.009483 83.6941519,138.193008 82.6904556,135.447435 L79.2640275,125.992185 L48.4261749,41.245133 C47.1175947,37.6096927 48.9226818,33.5759938 52.46936,32.2101167 C52.6749457,32.1400778 52.94906,32.0700389 53.1546457,32 L64.4618583,75.2139929 C65.1129433,77.7901818 67.079491,79.8030586 69.5991569,80.472319 C72.1188227,81.1415794 74.7954447,80.361997 76.5914136,78.4357817 L93.9291396,125.992185 L95.5738251,130.544713 C96.8824053,134.180153 95.0773182,138.213852 91.53064,139.579729 L91.53064,139.579729 Z" id="Path" fill="#B8BEBF"></path>
                <path d="M118.918009,131.843471 C119.204583,133.705455 118.733307,135.604156 117.608182,137.120566 C116.483057,138.636976 114.796571,139.646443 112.920899,139.926196 C112.567181,139.985059 112.208442,140.00881 111.849986,139.997097 C108.316988,140.001707 105.311911,137.439409 104.781964,133.970504 L103.568263,125.816878 L97,82 C101.437393,84.6699976 106.953161,84.857957 111.56441,82.4963077 L117.989885,125.816878 L118.918009,131.843471 Z" id="Path" fill="#B8BEBF"></path>
                <path d="M185,87.9757537 L171.004638,125.939366 L167.523205,135.430269 C166.503396,138.186194 163.891879,140.009519 160.978111,140 C160.148211,139.996996 159.324601,139.854438 158.541108,139.578145 C154.937494,138.207117 153.103429,134.158208 154.433016,130.50906 L156.104104,125.939366 L172.327583,82 C173.451645,82.5312825 174.467174,83.2704985 175.321616,84.1793925 L175.391244,84.2496955 C177.935574,86.7962816 181.421482,88.1480378 185,87.9757537 Z" id="Path" fill="#B8BEBF"></path>
                <path d="M154,87.0649755 L147.790438,126.230678 L146.548525,134.146418 C146.00626,137.514116 142.931331,140.001657 139.316211,139.997182 C138.949424,140.008553 138.582346,139.985495 138.220406,139.928349 C136.301135,139.656758 134.575447,138.676743 133.42417,137.204575 C132.272892,135.732407 131.790661,133.889102 132.083897,132.081442 L133.033595,126.230678 L139.535372,85 C143.474191,88.3729261 149.177534,89.1871374 154,87.0649755 L154,87.0649755 Z" id="Path" fill="#B8BEBF"></path>
                <rect id="Rectangle" fill="#93999A" x="0" y="128" width="253" height="26"></rect>
                <path d="M35.1388889,141 C27.3762199,141 21.0833333,135.179702 21.0833333,128 L0,128 L0,154 L253,154 L253,141 L35.1388889,141 Z" id="Path" fill="#656B76"></path>
            </g>
        </g>
    </g>
</svg>